<svg width="445" height="188" viewBox="0 0 445 188" fill="none" xmlns="http://www.w3.org/2000/svg">
    <path opacity="0.1" fill-rule="evenodd" clip-rule="evenodd" d="M-127.06 18.6537C-132.617 14.1386 -140.55 14.1386 -146.106 18.6537L-223.952 81.906C-236.017 91.7086 -253.481 90.7723 -264.443 79.7353L-286 58.0315L-275.278 47.2359L-253.721 68.9396C-248.24 74.4581 -239.508 74.9263 -233.476 70.025L-155.63 6.77266C-144.516 -2.25754 -128.651 -2.25756 -117.537 6.77265L-38.0648 71.3463C-32.5079 75.8614 -24.5753 75.8614 -19.0185 71.3464L60.4538 6.77266C71.5674 -2.25754 87.4326 -2.25756 98.5462 6.77265L178.019 71.3463C183.575 75.8614 191.508 75.8614 197.065 71.3464L276.537 6.77266C287.651 -2.25754 303.516 -2.25756 314.63 6.77265L392.476 70.025C398.508 74.9263 407.24 74.4581 412.721 68.9396L434.278 47.2359L445 58.0315L423.444 79.7353C412.481 90.7723 395.017 91.7085 382.953 81.906L305.106 18.6537C299.55 14.1386 291.617 14.1386 286.06 18.6537L206.588 83.2274C195.474 92.2576 179.609 92.2575 168.495 83.2273L89.0231 18.6537C83.4663 14.1386 75.5337 14.1386 69.9769 18.6537L-9.49539 83.2274C-20.6091 92.2576 -36.4742 92.2575 -47.5879 83.2273L-127.06 18.6537Z" fill="black"/>
    <path opacity="0.1" fill-rule="evenodd" clip-rule="evenodd" d="M-127.06 117.446C-132.617 112.981 -140.55 112.981 -146.106 117.446L-223.952 179.996C-236.017 189.69 -253.481 188.764 -264.443 177.849L-286 156.387L-275.278 145.711L-253.721 167.174C-248.24 172.631 -239.508 173.094 -233.476 168.247L-155.63 105.697C-144.516 96.7675 -128.651 96.7675 -117.537 105.697L-38.0648 169.554C-32.5079 174.019 -24.5753 174.019 -19.0185 169.554L60.4538 105.697C71.5674 96.7675 87.4326 96.7675 98.5462 105.697L178.019 169.554C183.575 174.019 191.508 174.019 197.065 169.554L276.537 105.697C287.651 96.7675 303.516 96.7675 314.63 105.697L392.476 168.247C398.508 173.094 407.24 172.631 412.721 167.174L434.278 145.711L445 156.387L423.444 177.849C412.481 188.764 395.017 189.69 382.953 179.996L305.106 117.446C299.55 112.981 291.617 112.981 286.06 117.446L206.588 181.303C195.474 190.232 179.609 190.232 168.495 181.303L89.0231 117.446C83.4663 112.981 75.5337 112.981 69.9769 117.446L-9.49539 181.303C-20.6091 190.232 -36.4742 190.232 -47.5879 181.303L-127.06 117.446Z" fill="black"/>
</svg>
