<svg width="501" height="188" viewBox="0 0 501 188" fill="none" xmlns="http://www.w3.org/2000/svg">
    <path opacity="0.1" fill-rule="evenodd" clip-rule="evenodd" d="M158.94 18.6537C153.383 14.1386 145.45 14.1386 139.894 18.6537L62.0475 81.906C49.9833 91.7086 32.5186 90.7723 21.5565 79.7353L0 58.0315L10.7224 47.2359L32.2789 68.9396C37.7599 74.4581 46.4923 74.9263 52.5244 70.025L130.37 6.77266C141.484 -2.25754 157.349 -2.25756 168.463 6.77265L247.935 71.3463C253.492 75.8614 261.425 75.8614 266.981 71.3464L346.454 6.77266C357.567 -2.25754 373.433 -2.25756 384.546 6.77265L464.019 71.3463C469.575 75.8614 477.508 75.8614 483.065 71.3464L562.537 6.77266C573.651 -2.25754 589.516 -2.25756 600.63 6.77265L678.476 70.025C684.508 74.9263 693.24 74.4581 698.721 68.9396L720.278 47.2359L731 58.0315L709.444 79.7353C698.481 90.7723 681.017 91.7085 668.953 81.906L591.106 18.6537C585.55 14.1386 577.617 14.1386 572.06 18.6537L492.588 83.2274C481.474 92.2576 465.609 92.2575 454.495 83.2273L375.023 18.6537C369.466 14.1386 361.534 14.1386 355.977 18.6537L276.505 83.2274C265.391 92.2576 249.526 92.2575 238.412 83.2273L158.94 18.6537Z" fill="black"/>
    <path opacity="0.1" fill-rule="evenodd" clip-rule="evenodd" d="M158.94 117.446C153.383 112.981 145.45 112.981 139.894 117.446L62.0475 179.996C49.9833 189.69 32.5186 188.764 21.5565 177.849L0 156.387L10.7224 145.711L32.2789 167.174C37.7599 172.631 46.4923 173.094 52.5244 168.247L130.37 105.697C141.484 96.7675 157.349 96.7675 168.463 105.697L247.935 169.554C253.492 174.019 261.425 174.019 266.981 169.554L346.454 105.697C357.567 96.7675 373.433 96.7675 384.546 105.697L464.019 169.554C469.575 174.019 477.508 174.019 483.065 169.554L562.537 105.697C573.651 96.7675 589.516 96.7675 600.63 105.697L678.476 168.247C684.508 173.094 693.24 172.631 698.721 167.174L720.278 145.711L731 156.387L709.444 177.849C698.481 188.764 681.017 189.69 668.953 179.996L591.106 117.446C585.55 112.981 577.617 112.981 572.06 117.446L492.588 181.303C481.474 190.232 465.609 190.232 454.495 181.303L375.023 117.446C369.466 112.981 361.534 112.981 355.977 117.446L276.505 181.303C265.391 190.232 249.526 190.232 238.412 181.303L158.94 117.446Z" fill="black"/>
</svg>
