<svg width="34" height="34" viewBox="0 0 34 34" fill="none" xmlns="http://www.w3.org/2000/svg">
    <path opacity="0.7" d="M11.2509 16.5625C11.2509 13.5135 13.7685 11.0412 16.875 11.0412C19.9815 11.0412 22.5004 13.5135 22.5004 16.5625C22.5004 19.6115 19.9815 22.0838 16.875 22.0838C13.7685 22.0838 11.2509 19.6115 11.2509 16.5625ZM8.20989 16.5625C8.20989 21.2596 12.0892 25.0671 16.875 25.0671C21.6607 25.0671 25.5401 21.2596 25.5401 16.5625C25.5401 11.8654 21.6607 8.05785 16.875 8.05785C12.0892 8.05785 8.20989 11.8654 8.20989 16.5625ZM23.8581 7.72064C23.858 8.11373 23.9766 8.49804 24.199 8.82497C24.4213 9.1519 24.7375 9.40677 25.1075 9.55734C25.4774 9.70792 25.8846 9.74744 26.2774 9.6709C26.6702 9.59437 27.0311 9.40522 27.3145 9.12737C27.5978 8.84953 27.7908 8.49547 27.8691 8.10996C27.9474 7.72445 27.9074 7.32482 27.7543 6.96159C27.6012 6.59836 27.3418 6.28785 27.0088 6.06933C26.6759 5.85081 26.2845 5.73409 25.8839 5.73394H25.8831C25.3463 5.73418 24.8315 5.94355 24.4518 6.31605C24.0721 6.68856 23.8586 7.19374 23.8581 7.72064ZM10.0575 30.044C8.41225 29.9704 7.51801 29.7015 6.92374 29.4742C6.13588 29.1732 5.57374 28.8146 4.98271 28.2354C4.39168 27.6561 4.02583 27.1049 3.72046 26.3316C3.4888 25.7486 3.21475 24.8706 3.13996 23.2559C3.05815 21.51 3.04182 20.9856 3.04182 16.5626C3.04182 12.1397 3.0595 11.6167 3.13996 9.86939C3.21489 8.25462 3.49096 7.37839 3.72046 6.79367C4.02718 6.0204 4.39249 5.46867 4.98271 4.88859C5.57293 4.3085 6.13453 3.94943 6.92374 3.64971C7.51774 3.42234 8.41225 3.15337 10.0575 3.07996C11.8363 2.99967 12.3706 2.98363 16.875 2.98363C21.3794 2.98363 21.9143 3.00099 23.6945 3.07996C25.3398 3.1535 26.2325 3.42446 26.8283 3.64971C27.6161 3.94943 28.1783 4.3093 28.7693 4.88859C29.3603 5.46788 29.7248 6.0204 30.0316 6.79367C30.2632 7.37667 30.5373 8.25462 30.6121 9.86939C30.6939 11.6167 30.7102 12.1397 30.7102 16.5626C30.7102 20.9856 30.6939 21.5086 30.6121 23.2559C30.5371 24.8706 30.2617 25.7483 30.0316 26.3316C29.7248 27.1049 29.3595 27.6566 28.7693 28.2354C28.1791 28.8141 27.6161 29.1732 26.8283 29.4742C26.2343 29.7016 25.3398 29.9706 23.6945 30.044C21.9158 30.1243 21.3814 30.1403 16.875 30.1403C12.3686 30.1403 11.8357 30.1243 10.0575 30.044ZM9.91777 0.100303C8.12133 0.180597 6.89377 0.460172 5.82174 0.869597C4.7115 1.2924 3.77163 1.85964 2.83243 2.77998C1.89324 3.70033 1.31679 4.62425 0.886005 5.71393C0.468855 6.76677 0.184005 7.97094 0.102195 9.73411C0.019035 11.5001 0 12.0647 0 16.5625C0 21.0603 0.019035 21.6249 0.102195 23.3909C0.184005 25.1542 0.468855 26.3582 0.886005 27.4111C1.31679 28.5001 1.89337 29.4251 2.83243 30.345C3.77149 31.265 4.7115 31.8314 5.82174 32.2554C6.8958 32.6648 8.12133 32.9444 9.91777 33.0247C11.718 33.105 12.2923 33.125 16.875 33.125C21.4577 33.125 22.0329 33.1063 23.8322 33.0247C25.6288 32.9444 26.8555 32.6648 27.9283 32.2554C29.0378 31.8314 29.9784 31.2654 30.9176 30.345C31.8568 29.4247 32.432 28.5001 32.864 27.4111C33.2811 26.3582 33.5673 25.1541 33.6478 23.3909C33.7296 21.6236 33.7486 21.0603 33.7486 16.5625C33.7486 12.0647 33.7296 11.5001 33.6478 9.73411C33.566 7.9708 33.2811 6.76611 32.864 5.71393C32.432 4.62491 31.8553 3.70178 30.9176 2.77998C29.9798 1.85818 29.0378 1.2924 27.9296 0.869597C26.8555 0.460172 25.6287 0.179273 23.8336 0.100303C22.0343 0.0200075 21.4591 0 16.8763 0C12.2936 0 11.718 0.0186825 9.91777 0.100303Z" fill="white"/>
</svg>
