<svg width="210" height="46" viewBox="0 0 210 46" fill="none" xmlns="http://www.w3.org/2000/svg">
    <path d="M117.901 12.8167V26.4079H116.543V14.0636H108.025V26.4079H106.667V12.8167H117.901Z" fill="#005BAA"/>
    <path d="M132.099 14.0635C133.086 14.9363 133.58 16.0585 133.58 17.4301C133.58 18.9264 133.086 20.0487 132.099 20.7968C131.111 21.6696 129.753 22.0437 128.025 22.0437H124.444V26.2832H122.963V12.6919H128.025C129.876 12.8166 131.235 13.1907 132.099 14.0635ZM131.111 19.9239C131.852 19.3005 132.222 18.5523 132.222 17.4301C132.222 16.3079 131.852 15.4351 131.111 14.9363C130.37 14.3129 129.383 14.0635 128.025 14.0635H124.444V20.9215H128.025C129.383 20.7968 130.37 20.5474 131.111 19.9239Z" fill="#005BAA"/>
    <path d="M145.062 22.6672H137.531L135.926 26.2832H134.444L140.617 12.6919H141.975L148.148 26.2832H146.667L145.062 22.6672ZM144.568 21.545L141.358 14.1882L138.148 21.545H144.568Z" fill="#005BAA"/>
    <path d="M161.481 20.4227C161.975 21.0462 162.222 21.6697 162.222 22.6672C162.222 23.7894 161.852 24.7869 160.988 25.4103C160.123 26.0338 158.889 26.4079 157.284 26.4079H151.358V12.8167H156.913C158.395 12.8167 159.506 13.066 160.247 13.6895C161.111 14.3129 161.481 15.1858 161.481 16.308C161.481 17.0561 161.234 17.6796 160.864 18.303C160.494 18.8018 160 19.1758 159.259 19.4252C160.247 19.5499 160.988 19.924 161.481 20.4227ZM152.716 18.9265H156.79C157.778 18.9265 158.642 18.6771 159.136 18.303C159.753 17.9289 160 17.3055 160 16.4327C160 15.5598 159.753 14.9364 159.136 14.5623C158.518 14.1882 157.778 13.9389 156.79 13.9389H152.716V18.9265ZM160.741 22.5425C160.741 20.7968 159.63 19.924 157.284 19.924H152.716V25.161H157.284C159.63 25.161 160.741 24.2881 160.741 22.5425Z" fill="#005BAA"/>
    <path d="M166.296 12.8167H167.654V24.0388L176.296 12.8167H177.531V26.4079H176.173V15.1858L167.531 26.4079H166.296V12.8167Z" fill="#005BAA"/>
    <path d="M193.086 12.8167V26.4079H191.728V14.0636H185.185L185.062 18.5524C184.938 20.4227 184.815 21.919 184.568 23.0412C184.321 24.1635 183.951 25.0363 183.457 25.6597C182.963 26.2832 182.346 26.5326 181.481 26.5326C181.111 26.5326 180.741 26.5326 180.37 26.4079L180.494 25.161C180.741 25.161 180.864 25.2857 181.111 25.2857C181.728 25.2857 182.099 25.0363 182.469 24.6622C182.839 24.1635 183.086 23.54 183.21 22.5425C183.333 21.545 183.457 20.2981 183.58 18.8018L183.827 12.9413H193.086V12.8167Z" fill="#005BAA"/>
    <path d="M206.914 22.6672H199.383L197.778 26.2832H196.296L202.469 12.6919H203.827L210 26.2832H208.519L206.914 22.6672ZM206.296 21.545L203.087 14.1882L199.877 21.545H206.296Z" fill="#005BAA"/>
    <path d="M115.679 33.3906C116.667 34.2635 117.161 35.3857 117.161 36.7573C117.161 38.2536 116.667 39.3758 115.679 40.1239C114.691 40.9968 113.333 41.3709 111.605 41.3709H108.025V45.6103H106.543V32.019H111.605C113.333 32.1437 114.691 32.6425 115.679 33.3906ZM114.691 39.3758C115.432 38.7523 115.802 38.0042 115.802 36.882C115.802 35.7598 115.432 34.8869 114.691 34.3882C113.951 33.7647 112.963 33.5153 111.605 33.5153H108.025V40.3733H111.605C112.963 40.2486 113.951 39.9992 114.691 39.3758Z" fill="#005BAA"/>
    <path d="M123.086 44.987C121.975 44.3635 121.111 43.6154 120.494 42.4931C119.877 41.4956 119.63 40.2487 119.63 39.0018C119.63 37.7549 119.877 36.508 120.494 35.5104C121.111 34.5129 121.975 33.6401 123.086 33.0166C124.198 32.3932 125.432 32.1438 126.667 32.1438C128.025 32.1438 129.259 32.3932 130.247 33.0166C131.358 33.6401 132.222 34.3882 132.84 35.5104C133.457 36.508 133.704 37.7549 133.704 39.0018C133.704 40.2487 133.457 41.4956 132.84 42.4931C132.222 43.4907 131.358 44.3635 130.247 44.987C129.136 45.6104 128.025 45.8598 126.667 45.8598C125.432 45.8598 124.198 45.6104 123.086 44.987ZM129.63 43.8647C130.494 43.366 131.111 42.7425 131.605 41.8697C132.099 40.9968 132.346 39.9993 132.346 39.0018C132.346 37.8796 132.099 37.0067 131.605 36.1339C131.111 35.261 130.494 34.6376 129.63 34.1388C128.765 33.6401 127.778 33.3907 126.79 33.3907C125.679 33.3907 124.815 33.6401 123.951 34.1388C123.086 34.6376 122.346 35.261 121.852 36.1339C121.358 37.0067 121.111 38.0043 121.111 39.0018C121.111 40.124 121.358 40.9968 121.852 41.8697C122.346 42.7425 123.086 43.366 123.951 43.8647C124.815 44.3635 125.802 44.6129 126.79 44.6129C127.778 44.6129 128.765 44.3635 129.63 43.8647Z" fill="#005BAA"/>
    <path d="M140.123 44.987C139.012 44.3635 138.272 43.6154 137.654 42.4931C137.037 41.4956 136.79 40.2487 136.79 39.0018C136.79 37.7549 137.037 36.508 137.654 35.5104C138.272 34.5129 139.136 33.6401 140.123 33.0166C141.234 32.3932 142.346 32.1438 143.704 32.1438C144.691 32.1438 145.679 32.2685 146.42 32.6426C147.284 33.0166 148.025 33.5154 148.518 34.1388L147.654 35.0117C146.543 33.8895 145.309 33.3907 143.704 33.3907C142.593 33.3907 141.728 33.6401 140.741 34.1388C139.876 34.6376 139.136 35.261 138.642 36.1339C138.148 37.0067 137.901 38.0043 137.901 39.0018C137.901 40.124 138.148 40.9968 138.642 41.8697C139.136 42.7425 139.876 43.366 140.741 43.8647C141.605 44.3635 142.593 44.6129 143.704 44.6129C145.309 44.6129 146.667 44.1141 147.654 42.9919L148.518 43.8647C147.901 44.4882 147.16 44.9869 146.296 45.361C145.432 45.7351 144.568 45.8598 143.457 45.8598C142.346 45.8598 141.111 45.6104 140.123 44.987Z" fill="#005BAA"/>
    <path d="M160.864 33.3907H156.173V45.7351H154.815V33.3907H150.124V32.1438H160.988V33.3907H160.864Z" fill="#005BAA"/>
    <path d="M171.852 42.1191H164.321L162.716 45.7351H161.235L167.407 32.1438H168.765L174.938 45.7351H173.457L171.852 42.1191ZM171.358 40.9968L168.148 33.6401L164.938 40.9968H171.358Z" fill="#005BAA"/>
    <path d="M35.3087 45.735C30.1235 45.735 28.2717 44.3634 25.0618 41.1215C21.8519 37.8795 13.21 29.1511 13.21 29.1511H22.0988C22.0988 29.1511 30.7408 37.8795 33.9507 41.1215C37.1606 44.3634 39.0124 45.735 44.1976 45.735H35.3087Z" fill="#5EC4B6"/>
    <path d="M25.3086 45.8596C21.6049 42.1189 8.76543 29.1511 8.76543 29.1511H0C0 29.1511 12.8395 42.1189 16.5432 45.8596H25.3086Z" fill="#5DB56C"/>
    <path d="M91.4813 0.970947L68.3949 12.6919H73.7036C70.9875 15.4351 48.5184 38.1288 45.432 41.2461C42.2221 44.488 40.3702 45.8596 35.1851 45.8596H48.7653C53.9505 45.8596 55.8023 44.488 59.0122 41.2461C62.0986 38.1288 84.5678 15.4351 87.2838 12.6919H91.6048V0.970947H91.4813Z" fill="#005BAA"/>
    <path d="M26.0493 29.1511L34.1975 37.3807C38.5185 37.3807 41.8518 36.2585 38.8888 33.2659C35.9259 30.2734 30.6172 29.1511 26.0493 29.1511Z" fill="#5EC4B6"/>
</svg>
