<svg width="36" height="22" viewBox="0 0 36 22" fill="none" xmlns="http://www.w3.org/2000/svg">
    <path opacity="0.7" fill-rule="evenodd" clip-rule="evenodd" d="M35.0437 1.44229C35.2932 0.610998 35.0437 0 33.8571 0H29.9332C28.9355 0 28.4758 0.527755 28.2264 1.10988C28.2264 1.10988 26.2308 5.97347 23.404 9.13272C22.4894 10.0473 22.0738 10.3379 21.5749 10.3379C21.3255 10.3379 20.9645 10.0473 20.9645 9.21596V1.44229C20.9645 0.444515 20.675 0 19.8434 0H13.6774C13.054 0 12.679 0.463013 12.679 0.901922C12.679 1.84785 14.0922 2.0659 14.2379 4.72626V10.5047C14.2379 11.7715 14.0092 12.0013 13.5103 12.0013C12.1801 12.0013 8.94466 7.11559 7.02534 1.52553C6.64921 0.438909 6.27197 0 5.26915 0H1.34531C0.224219 0 0 0.527755 0 1.10988C0 2.14914 1.33046 7.30394 6.19405 14.1213C9.43682 18.7767 14.0047 21.3008 18.1617 21.3008C20.6562 21.3008 20.9645 20.7403 20.9645 19.7747V16.2559C20.9645 15.1348 21.2007 14.9111 21.9903 14.9111C22.5727 14.9111 23.5702 15.202 25.8984 17.4468C28.5588 20.1068 28.9971 21.3008 30.4938 21.3008H34.4176C35.5387 21.3008 36.0993 20.7403 35.7758 19.634C35.4221 18.5314 34.1519 16.9322 32.4663 15.0358C31.5518 13.9548 30.1799 12.7909 29.7645 12.209C29.1824 11.4607 29.3486 11.1283 29.7645 10.4635C29.7645 10.4635 34.5449 3.72904 35.0437 1.44257V1.44229Z" fill="white"/>
</svg>
