<svg width="31" height="36" viewBox="0 0 31 36" fill="none" xmlns="http://www.w3.org/2000/svg">
    <path fill-rule="evenodd" clip-rule="evenodd" d="M29.5332 18.1903C29.1854 16.8987 28.167 15.8803 26.8754 15.5325C24.5158 14.8867 15.0771 14.8867 15.0771 14.8867C15.0771 14.8867 5.63838 14.8867 3.2787 15.5077C2.01193 15.8554 0.968708 16.8987 0.620967 18.1903C0 20.5499 0 25.4432 0 25.4432C0 25.4432 0 30.3612 0.620967 32.6961C0.968708 33.9877 1.98709 35.0061 3.2787 35.3538C5.66322 35.9996 15.0771 35.9996 15.0771 35.9996C15.0771 35.9996 24.5158 35.9996 26.8754 35.3786C28.167 35.0309 29.1854 34.0125 29.5332 32.7209C30.1541 30.3612 30.1541 25.468 30.1541 25.468C30.1541 25.468 30.179 20.5499 29.5332 18.1903ZM23.3759 27.8329V28.2718C23.3759 28.8245 23.3922 29.2472 23.4247 29.5235C23.4572 29.7999 23.5222 30.0112 23.636 30.125C23.7336 30.255 23.8961 30.3201 24.1237 30.3201C24.4163 30.3201 24.6114 30.2063 24.7252 29.9787C24.839 29.7511 24.8877 29.3772 24.904 28.8408L26.5784 28.9383C26.5946 29.0196 26.5946 29.1171 26.5946 29.2472C26.5946 30.0437 26.3833 30.6452 25.9444 31.0353C25.5055 31.4255 24.8877 31.6205 24.0912 31.6205C23.1321 31.6205 22.4656 31.3117 22.0754 30.7102C21.6853 30.1087 21.4902 29.1821 21.4902 27.9142V26.4024C21.4902 25.1019 21.6853 24.159 22.0917 23.5575C22.4981 22.9561 23.1809 22.6635 24.14 22.6635C24.8065 22.6635 25.3267 22.7935 25.6843 23.0373C26.0419 23.2812 26.2858 23.6713 26.4321 24.1753C26.5784 24.6955 26.6434 25.4107 26.6434 26.3211V27.8004H23.3759V27.8329ZM23.6198 24.1915C23.5222 24.3216 23.4572 24.5166 23.4247 24.793C23.3922 25.0694 23.3759 25.492 23.3759 26.061V26.6787H24.8065V26.061C24.8065 25.5083 24.7902 25.0856 24.7577 24.793C24.7252 24.5004 24.6439 24.3053 24.5464 24.1915C24.4488 24.0777 24.2863 24.0127 24.0912 24.0127C23.8636 23.9965 23.7173 24.0615 23.6198 24.1915ZM13.9799 31.523V22.8585H12.0292V29.7348C11.9641 29.8974 11.8504 30.0274 11.6878 30.1249C11.5252 30.2387 11.3627 30.2875 11.2001 30.2875C11.005 30.2875 10.8587 30.2062 10.7775 30.0437C10.6962 29.8811 10.6474 29.6047 10.6474 29.2146V22.8585H8.69668V29.3284C8.69668 30.1412 8.82673 30.7264 9.10308 31.1003C9.37944 31.4742 9.80209 31.6693 10.3711 31.6693C11.2001 31.6693 11.8341 31.2629 12.2405 30.4663H12.2893L12.4518 31.523H13.9799ZM9.28181 21.2328H7.34733V31.5066H5.44538V21.2328H3.51091V19.656H9.28181V21.2328ZM19.8646 23.0535C20.1247 23.2973 20.3198 23.6875 20.4336 24.2402C20.5474 24.7766 20.5961 25.5407 20.6124 26.5323V27.8978C20.6124 29.182 20.4498 30.1411 20.141 30.7426C19.8321 31.3441 19.3607 31.653 18.6942 31.653C18.3203 31.653 17.9952 31.5554 17.6863 31.3929C17.3774 31.214 17.1499 30.9865 17.0036 30.6938H16.9548L16.7597 31.5067H15.1504V19.2171H17.0361V23.785H17.0523C17.2149 23.4599 17.4587 23.1836 17.7676 22.9885C18.0765 22.7772 18.4178 22.6796 18.7755 22.6796C19.2306 22.6796 19.6045 22.8097 19.8646 23.0535ZM18.5641 29.2471C18.6129 28.8894 18.6454 28.4017 18.6454 27.7678H18.6617V26.6298C18.6617 25.9633 18.6454 25.4431 18.5966 25.0693C18.5479 24.7116 18.4829 24.4515 18.3691 24.289C18.2715 24.1427 18.109 24.0614 17.9139 24.0614C17.7351 24.0614 17.5563 24.1427 17.3937 24.289C17.2311 24.4515 17.1173 24.6466 17.0523 24.8742V29.7835C17.1336 29.9298 17.2474 30.0436 17.3774 30.1249C17.5075 30.2062 17.6538 30.2387 17.8164 30.2387C18.0114 30.2387 18.174 30.1574 18.304 30.0111C18.4178 29.8648 18.5154 29.6047 18.5641 29.2471Z" fill="white"/>
    <path d="M13.2482 11.607C12.858 11.3469 12.5817 10.9405 12.4191 10.3715C12.2566 9.81881 12.1753 9.07103 12.1753 8.1607V6.90898C12.1753 5.98238 12.2728 5.23461 12.4516 4.66564C12.6467 4.09668 12.9393 3.69028 13.3295 3.43018C13.7359 3.17009 14.2561 3.04004 14.9063 3.04004C15.5403 3.04004 16.0605 3.17009 16.4506 3.43018C16.8408 3.69028 17.1171 4.11294 17.2959 4.66564C17.4748 5.21835 17.5723 5.96613 17.5723 6.90898V8.1607C17.5723 9.08729 17.491 9.81881 17.3122 10.3878C17.1334 10.9405 16.857 11.3631 16.4669 11.6232C16.0767 11.8833 15.5403 12.0134 14.8738 12.0134C14.191 11.9971 13.6383 11.8671 13.2482 11.607ZM15.4428 10.2415C15.5566 9.96512 15.6053 9.49369 15.6053 8.8597V6.1612C15.6053 5.54347 15.5566 5.0883 15.4428 4.79569C15.329 4.50308 15.1502 4.37304 14.8738 4.37304C14.6137 4.37304 14.4186 4.51934 14.3211 4.79569C14.2073 5.0883 14.1585 5.54347 14.1585 6.1612V8.8597C14.1585 9.49369 14.2073 9.96512 14.3211 10.2415C14.4186 10.5178 14.6137 10.6641 14.8901 10.6641C15.1502 10.6641 15.329 10.5341 15.4428 10.2415Z" fill="white"/>
    <path d="M8.50135 8.01423L6.29053 0H8.225L9.00529 3.6251C9.20036 4.51918 9.34666 5.28321 9.4442 5.9172H9.49297C9.55799 5.46203 9.7043 4.71425 9.93188 3.64135L10.7447 0H12.6792L10.4358 8.01423V11.8507H8.51761V8.01423H8.50135Z" fill="white"/>
    <path d="M23.8633 3.20264V11.8671H22.3352L22.1727 10.8105H22.1239C21.7175 11.607 21.0835 12.0134 20.2544 12.0134C19.6855 12.0134 19.2628 11.8183 18.9865 11.4445C18.7101 11.0706 18.5801 10.4853 18.5801 9.67254V3.20264H20.5308V9.55875C20.5308 9.9489 20.5796 10.2252 20.6608 10.3878C20.7421 10.5504 20.8884 10.6317 21.0835 10.6317C21.2461 10.6317 21.4086 10.5829 21.5712 10.4691C21.7337 10.3716 21.8475 10.2415 21.9126 10.0789V3.20264H23.8633Z" fill="white"/>
</svg>
